HIERARCHY
ROOT root     
{
	OFFSET 0.0000 0.0000 0.0000
	CHANNELS 6 Xposition Yposition Zposition Zrotation Yrotation Xrotation
	JOINT pelvis   
	{
		OFFSET 0.0000 0.0000 0.0000
		CHANNELS 3 Zrotation Yrotation Xrotation
		JOINT thorax   
		{
			OFFSET 0.0000 23.0750 -5.0000
			CHANNELS 3 Zrotation Yrotation Xrotation
			JOINT rclavicle
			{
				OFFSET 0.0000 28.0009 0.0000
				CHANNELS 3 Zrotation Yrotation Xrotation
				JOINT rhumerus 
				{
					OFFSET -18.5725 5.5939 0.0000
					CHANNELS 3 Zrotation Yrotation Xrotation
					JOINT rradius  
					{
						OFFSET -24.8459 0.0000 0.0000
						CHANNELS 3 Zrotation Yrotation Xrotation
						JOINT rhand    
						{
							OFFSET -24.5477 0.0000 0.0000
							CHANNELS 3 Zrotation Yrotation Xrotation
							End Site
							{
								OFFSET -8.1826 0.0000 0.0000
							}
						}
					}
				}
			}
			JOINT lclavicle
			{
				OFFSET 0.0000 28.0009 0.0000
				CHANNELS 3 Zrotation Yrotation Xrotation
				JOINT lhumerus 
				{
					OFFSET 18.5725 5.5939 0.0000
					CHANNELS 3 Zrotation Yrotation Xrotation
					JOINT lradius  
					{
						OFFSET 24.8459 0.0000 0.0000
						CHANNELS 3 Zrotation Yrotation Xrotation
						JOINT lhand    
						{
							OFFSET 24.5477 0.0000 0.0000
							CHANNELS 3 Zrotation Yrotation Xrotation
							End Site
							{
								OFFSET 8.1826 0.0000 0.0000
							}
						}
					}
				}
			}
			JOINT head     
			{
				OFFSET 0.0000 35.2030 0.0000
				CHANNELS 3 Zrotation Yrotation Xrotation
				End Site
				{
					OFFSET 0.0000 11.7343 0.0000
				}
			}
		}
		JOINT rfemur   
		{
			OFFSET -8.2817 0.0000 0.0000
			CHANNELS 3 Zrotation Yrotation Xrotation
			JOINT rtibia   
			{
				OFFSET 0.0000 -43.3627 0.0000
				CHANNELS 3 Zrotation Yrotation Xrotation
				JOINT rfoot    
				{
					OFFSET 0.0000 -38.2947 0.0000
					CHANNELS 3 Zrotation Yrotation Xrotation
					JOINT rtoes    
					{
						OFFSET 0.0000 0.0000 16.6054
						CHANNELS 3 Zrotation Yrotation Xrotation
						End Site
						{
							OFFSET 0.0000 0.0000 5.5351
						}
					}
				}
			}
		}
		JOINT lfemur   
		{
			OFFSET 8.2817 0.0000 0.0000
			CHANNELS 3 Zrotation Yrotation Xrotation
			JOINT ltibia   
			{
				OFFSET 0.0000 -43.3627 0.0000
				CHANNELS 3 Zrotation Yrotation Xrotation
				JOINT lfoot    
				{
					OFFSET 0.0000 -38.2947 0.0000
					CHANNELS 3 Zrotation Yrotation Xrotation
					JOINT ltoes    
					{
						OFFSET 0.0000 0.0000 16.6054
						CHANNELS 3 Zrotation Yrotation Xrotation
						End Site
						{
							OFFSET 0.0000 0.0000 5.5351
						}
					}
				}
			}
		}
	}
}
MOTION
Frames: 13
Frame Time: .0333333
-10.442 83.866 8.1731 -165.884 82.6914 -149.095 0 -0 0 5.25693 -8.46172 -8.65299 28.6626 -11.084 -6.32313e-06 55.9263 -10.5065 -12.6607 -0 61.0334 -0 -6.24206 4.02446 -0.219501 -24.5231 17.6599 -1.37093e-05 -37.8093 6.01964 18.012 -180 -57.0408 180 2.60093 -2.33653 -0.0530019 -19.2754 15.7186 -16.0863 3.22997 -15.4017 -36.9102 -0 -0 20.4206 -2.90959e-06 2.83537 15.9305 0.778796 -1.90222e-08 -49.6263 2.11505 -0.0657992 1.83173 -0 -0 29.6645 5.85888e-06 -1.90941 10.7248 -0.355405 -1.90486e-06 -61.5807 
-9.2619 83.552 8.3415 -161.93 82.4567 -145.456 0 -0 0 5.82742 -7.72416 -8.24854 28.9119 -10.4989 3.7777e-05 55.2294 -10.2057 -12.2846 -0 59.8926 -0 -7.37997 4.14649 -0.267497 -24.8106 17.5496 -0.00010123 -38.585 6.29285 17.066 -180 -56.8288 180 2.69785 -2.71027 -0.0638009 -19.7503 16.1285 -16.3143 3.79574 -15.4105 -37.5151 -0 -0 23.9223 9.53059e-06 3.06898 14.1103 0.748801 -7.95953e-07 -46.7412 2.99748 0.618901 1.75385 -0 -0 31.7612 7.04218e-07 -2.18534 10.6666 -0.404694 3.83034e-06 -59.4965 
-8.1066 83.293 8.5142 -158.15 82.0796 -142.028 0 -0 0 6.4401 -7.04031 -7.75108 29.1522 -9.87629 -4.86714e-05 54.5793 -9.74504 -11.8065 -0 58.5941 -0 -8.58007 4.2921 -0.322104 -25.0485 17.4355 1.11989e-05 -39.5978 6.57179 16.2699 -180 -56.9808 180 2.79395 -2.94548 -0.071801 -20.1873 16.5323 -16.5772 4.37475 -15.396 -37.7822 -0 -0 26.8806 -7.21857e-07 3.10702 12.4429 0.670097 3.53595e-06 -44.8181 3.96751 1.22475 1.54814 -0 -0 34.0398 1.62635e-06 -2.23807 10.5989 -0.411808 -3.62705e-06 -56.583 
-6.9832 83.096 8.6869 -154.94 81.5342 -139.182 0 -0 0 7.07358 -6.42709 -7.20823 29.3662 -9.2409 -5.37532e-05 54.0039 -9.13632 -11.2237 -0 57.16 -0 -9.78003 4.41477 -0.377897 -25.2541 17.3273 0.000108455 -40.7856 6.83696 15.645 -180 -57.487 180 2.91913 -3.00659 -0.0766008 -20.583 16.9335 -16.8622 4.97229 -15.4088 -37.7439 -0 -0 29.2404 3.70048e-06 2.95033 10.9598 0.561398 2.77014e-06 -43.9975 4.9942 1.71554 1.17491 -0 -0 36.4705 -1.67589e-06 -1.99596 10.5048 -0.364004 -6.61858e-06 -52.9355 
-5.8951 82.963 8.8482 -152.662 80.8529 -137.248 0 -0 0 7.66875 -5.89497 -6.66349 29.5499 -8.61581 -4.1342e-05 53.532 -8.40423 -10.5349 -0 55.6339 -0 -10.9152 4.46698 -0.426995 -25.4281 17.2322 -6.28241e-05 -42.086 7.07189 15.2022 -180 -58.3335 180 3.11124 -2.86575 -0.0777999 -20.9284 17.3347 -17.1529 5.56834 -15.5228 -37.4615 -0 -0 31.0263 -1.31804e-07 2.62785 9.65536 0.441093 7.73608e-07 -44.2132 6.0081 2.04812 0.615796 -0 -0 39.0013 -8.29752e-06 -1.39113 10.3709 -0.250495 2.53456e-06 -48.7287 
-4.8406 82.89 8.9914 -151.391 80.0479 -136.298 0 -0 0 8.1934 -5.4447 -6.14429 29.6835 -8.03742 5.19204e-05 53.192 -7.55342 -9.73558 -4.67397e-07 54.0581 -9.16178e-07 -11.9173 4.41564 -0.46111 -25.5815 17.1484 -5.50159e-05 -43.4314 7.26802 14.9374 -180 -59.4879 180 3.41295 -2.50418 -0.0745979 -21.2232 17.7389 -17.4333 6.14596 -15.7777 -36.9735 -0 -0 32.2772 2.12259e-06 2.15628 8.52133 0.319693 1.22338e-06 -45.2474 6.96878 2.20781 -0.128297 -0 -0 41.5794 3.64222e-07 -0.401105 10.1714 -0.0708003 -8.55117e-07 -44.0896 
-3.8185 82.871 9.1009 -151.229 79.1671 -136.415 0 -0 0 8.56363 -5.06787 -5.67794 29.7811 -7.51402 -2.76918e-05 52.9939 -6.64292 -8.83268 -0 52.5102 -0 -12.732 4.23158 -0.47231 -25.7052 17.079 0.000116026 -44.7663 7.41234 14.8474 -180 -60.9166 180 3.86663 -1.91371 -0.0646008 -21.4499 18.1398 -17.6827 6.64804 -16.2207 -36.3441 -0 -0 33.0843 -2.36276e-06 1.58438 7.53195 0.2077 1.80129e-06 -46.7638 7.78456 2.16433 -1.04334 -0 -0 44.1257 -6.82575e-07 0.996401 9.90952 0.171496 -1.58082e-06 -39.3529 
-2.8243 82.899 9.1744 -151.95 78.22 -137.371 0 -0 0 8.77176 -4.74734 -5.27589 29.8295 -7.06782 -9.0874e-05 52.9478 -5.69236 -7.82646 -4.13721e-07 51.0444 -8.66523e-07 -13.3115 3.9155 -0.45709 -25.8138 17.0137 9.22177e-05 -46.0325 7.51605 14.9148 -180 -62.5704 180 4.50685 -1.1025 -0.0434003 -21.617 18.5376 -17.8882 7.05998 -16.8408 -35.6012 -0 -0 33.5124 -4.4224e-07 0.9282 6.68201 0.108 -5.83626e-07 -48.4084 8.44393 1.9306 -2.10856 -0 -0 46.5878 -3.60658e-06 2.75386 9.5661 0.458007 5.33263e-06 -34.708 
-1.8547 82.967 9.2079 -153.369 77.2177 -138.981 0 -0 0 8.80056 -4.46016 -4.94516 29.8272 -6.70214 2.52501e-05 53.0488 -4.74392 -6.72471 -0 49.7231 -0 -13.6291 3.48479 -0.416511 -25.9075 16.9432 -9.70587e-05 -47.1897 7.59337 15.1143 -180 -64.3917 180 5.35404 -0.0968 -0.00449993 -21.7246 18.9271 -18.0327 7.35698 -17.6169 -34.7759 -0 -0 33.6421 2.32914e-07 0.219602 5.96577 0.0228002 7.36285e-08 -49.8748 8.92472 1.51705 -3.29657 -0 -0 48.9097 -8.71806e-06 4.80789 9.13645 0.765216 -2.33515e-06 -30.3609 
-0.9067 83.069 9.1993 -155.291 76.1739 -141.047 0 -0 0 8.64193 -4.17947 -4.68316 29.7795 -6.41783 1.60423e-05 53.2762 -3.83181 -5.52323 -0 48.5982 -0 -13.6805 2.97775 -0.357283 -25.9886 16.8699 0.000136247 -48.2096 7.64109 15.4345 -180 -66.3338 180 6.41069 1.05799 0.0593007 -21.7761 19.3005 -18.1086 7.52189 -18.5131 -33.8979 -0 -0 33.5557 -3.23742e-07 -0.507103 5.38218 -0.0475999 -3.1861e-07 -50.9727 9.21751 0.941697 -4.57627 -0 -0 51.0448 8.32669e-07 7.0717 8.61911 1.06511 -3.36968e-06 -26.4767 
0.0218 83.198 9.152 -157.493 75.0896 -143.35 0 -0 0 8.31749 -3.87796 -4.48466 29.6849 -6.20653 5.02614e-05 53.6069 -2.98373 -4.22926 -0 47.7045 -0 -13.4795 2.45156 -0.289805 -26.0626 16.7809 -3.05923e-06 -49.0777 7.68915 15.8394 -180 -68.3383 180 7.65052 2.29614 0.153504 -21.7796 19.654 -18.1113 7.55897 -19.4729 -32.9861 -0 -0 33.3183 6.61789e-07 -1.23188 4.94098 -0.1061 1.50619e-07 -51.6521 9.34221 0.236998 -5.92027 -0 -0 52.9654 -4.5766e-06 9.43358 8.00692 1.32575 -1.19622e-05 -23.0918 
0.932 83.352 9.0706 -159.776 73.9779 -145.69 0 -0 0 7.85629 -3.52898 -4.34062 29.5467 -6.06113 -3.83331e-05 54.0062 -2.21163 -2.83439 -3.53804e-07 47.06 -8.12526e-07 -13.0607 1.9723 -0.2258 -26.131 16.6857 0.000125588 -49.7902 7.7347 16.3135 -180 -70.3677 180 9.02542 3.53974 0.279499 -21.7421 19.9817 -18.0395 7.48129 -20.4369 -32.0558 -0 -0 32.9875 -9.47208e-07 -1.94023 4.65063 -0.157403 -7.2305e-07 -51.9771 9.32692 -0.559854 -7.30509 -0 -0 54.6523 2.15691e-05 11.7765 7.29849 1.51714 9.76045e-06 -20.1965 
1.8248 83.528 8.9617 -161.989 72.8405 -147.925 0 -0 0 7.29582 -3.11141 -4.24182 29.3676 -5.95852 3.74991e-05 54.4368 -1.53354 -1.35741 -0 46.6726 -0 -12.4639 1.60795 -0.175606 -26.2023 16.5622 7.03621e-05 -50.3492 7.82403 16.8067 -180 -72.3596 180 10.4604 4.70456 0.430908 -21.6694 20.2809 -17.8965 7.31039 -21.3438 -31.1153 -0 -0 32.6026 -5.62366e-07 -2.62561 4.51773 -0.206999 1.37487e-07 -52.0874 9.20721 -1.40788 -8.70977 -0 -0 56.099 3.50628e-05 13.9846 6.49739 1.61422 7.77676e-06 -17.7377 
